<svg xmlns="http://www.w3.org/2000/svg" version="1.1" xmlns:xlink="http://www.w3.org/1999/xlink" xmlns:svgjs="http://svgjs.dev/svgjs" width="41" height="26"><svg width="41" height="26" viewBox="0 0 41 26" fill="none" xmlns="http://www.w3.org/2000/svg">
<path fill-rule="evenodd" clip-rule="evenodd" d="M20.25 2.67163L19.0394 0.625H10.148L5.65628 8.21875L6.82081 10.1875H4.49175L0 17.7812L4.49175 25.375H13.3831L14.5937 23.3284L15.8043 25.375H24.6957L25.9063 23.3284L27.1169 25.375H36.0082L40.5 17.7812L30.352 0.625H21.4606L20.25 2.67163ZM17.9072 2.59375H11.2804L7.95315 8.21875L10.2822 12.1562H5.62409L2.29687 17.7812L5.62409 23.4062H12.2509L14.5938 19.4454L16.9367 23.4062H23.5635L25.9063 19.4454L28.2492 23.4062H34.876L38.2033 17.7812L29.2197 2.59375H22.5929L20.2501 6.55461L17.9072 2.59375Z" fill="#9660DB"></path>
<path d="M16.9367 4.28125L24.9221 17.7812L22.593 21.7188H17.9072L9.92191 8.21875L12.251 4.28125H16.9367Z" fill="#9660DB"></path>
<path d="M29.2198 21.7188L21.2345 8.21875L23.5635 4.28125H28.2493L36.2346 17.7812L33.9056 21.7188H29.2198Z" fill="#9660DB"></path>
<path d="M13.6095 17.7812L11.2804 13.8438H6.59468L4.26562 17.7812L6.59468 21.7188H11.2804L13.6095 17.7812Z" fill="#9660DB"></path>
</svg><style>@media (prefers-color-scheme: light) { :root { filter: none; } }
@media (prefers-color-scheme: dark) { :root { filter: none; } }
</style></svg>