<svg width="1408" height="543" viewBox="0 0 1408 543" fill="none" xmlns="http://www.w3.org/2000/svg">
<g opacity="0.3">
<path d="M1161.74 542.5L1126.25 482.5L1136.6 465H1157.42L1192.91 525L1182.56 542.5H1161.74Z" fill="#9660DB"/>
<path d="M1107.14 465L1142.63 525L1132.28 542.5H1111.46L1075.97 482.5L1086.32 465H1107.14Z" fill="#9660DB"/>
<path d="M1176.52 482.5L1186.87 500H1207.7L1218.05 482.5L1207.7 465H1186.87L1176.52 482.5Z" fill="#9660DB"/>
<path d="M1035.15 465L999.661 525L1010.01 542.5H1030.84L1066.33 482.5L1055.98 465H1035.15Z" fill="#9660DB"/>
<path d="M980.56 542.5L1016.05 482.5L1005.7 465H984.873L949.383 525L959.734 542.5H980.56Z" fill="#9660DB"/>
<path d="M1049.94 525L1060.29 507.5H1081.12L1091.47 525L1081.12 542.5H1060.29L1049.94 525Z" fill="#9660DB"/>
<path d="M781.983 465L746.492 525L756.844 542.5H777.669L813.16 482.5L802.808 465H781.983Z" fill="#9660DB"/>
<path d="M727.391 542.5L762.882 482.5L752.53 465H731.705L696.214 525L706.566 542.5H727.391Z" fill="#9660DB"/>
<path d="M796.77 525L807.122 507.5H827.947L838.299 525L827.947 542.5H807.122L796.77 525Z" fill="#9660DB"/>
<path d="M528.814 465L493.323 525L503.675 542.5H524.5L559.991 482.5L549.639 465H528.814Z" fill="#9660DB"/>
<path d="M474.222 542.5L509.713 482.5L499.361 465H478.536L443.045 525L453.397 542.5H474.222Z" fill="#9660DB"/>
<path d="M543.602 525L553.953 507.5H574.778L585.13 525L574.778 542.5H553.953L543.602 525Z" fill="#9660DB"/>
<path d="M275.645 465L240.155 525L250.506 542.5H271.332L306.822 482.5L296.471 465H275.645Z" fill="#9660DB"/>
<path d="M221.054 542.5L256.544 482.5L246.193 465H225.367L189.877 525L200.228 542.5H221.054Z" fill="#9660DB"/>
<path d="M290.433 525L300.784 507.5H321.61L331.961 525L321.61 542.5H300.784L290.433 525Z" fill="#9660DB"/>
<path d="M119.608 387.5L155.099 447.5L144.747 465H123.922L88.4312 405L98.7826 387.5H119.608Z" fill="#9660DB"/>
<path d="M174.2 465L138.709 405L149.061 387.5H169.886L205.377 447.5L195.025 465H174.2Z" fill="#9660DB"/>
<path d="M104.82 447.5L94.4691 430H73.6435L63.2922 447.5L73.6435 465H94.4691L104.82 447.5Z" fill="#9660DB"/>
<path d="M246.193 465L281.683 405L271.332 387.5H250.506L215.016 447.5L225.367 465H246.193Z" fill="#9660DB"/>
<path d="M300.784 387.5L265.294 447.5L275.645 465H296.471L331.961 405L321.61 387.5H300.784Z" fill="#9660DB"/>
<path d="M231.405 405L221.054 422.5H200.228L189.877 405L200.228 387.5H221.054L231.405 405Z" fill="#9660DB"/>
<path d="M499.361 465L534.852 405L524.5 387.5H503.675L468.184 447.5L478.536 465H499.361Z" fill="#9660DB"/>
<path d="M553.953 387.5L518.463 447.5L528.814 465H549.639L585.13 405L574.778 387.5H553.953Z" fill="#9660DB"/>
<path d="M484.574 405L474.222 422.5H453.397L443.045 405L453.397 387.5H474.222L484.574 405Z" fill="#9660DB"/>
<path d="M752.53 465L788.021 405L777.669 387.5H756.844L721.353 447.5L731.705 465H752.53Z" fill="#9660DB"/>
<path d="M807.122 387.5L771.631 447.5L781.983 465H802.808L838.299 405L827.947 387.5H807.122Z" fill="#9660DB"/>
<path d="M737.743 405L727.391 422.5H706.566L696.214 405L706.566 387.5H727.391L737.743 405Z" fill="#9660DB"/>
<g opacity="0.3">
<path d="M1005.7 465L1041.19 405L1030.84 387.5H1010.01L974.522 447.5L984.873 465H1005.7Z" fill="#9660DB"/>
<path d="M1060.29 387.5L1024.8 447.5L1035.15 465H1055.98L1091.47 405L1081.12 387.5H1060.29Z" fill="#9660DB"/>
<path d="M990.911 405L980.56 422.5H959.734L949.383 405L959.734 387.5H980.56L990.911 405Z" fill="#9660DB"/>
</g>
<path d="M1258.87 387.5L1294.36 447.5L1284.01 465H1263.18L1227.69 405L1238.04 387.5H1258.87Z" fill="#9660DB"/>
<path d="M1313.46 465L1277.97 405L1288.32 387.5H1309.15L1344.64 447.5L1334.28 465H1313.46Z" fill="#9660DB"/>
<path d="M1244.08 447.5L1233.73 430H1212.9L1202.55 447.5L1212.9 465H1233.73L1244.08 447.5Z" fill="#9660DB"/>
<path d="M1161.74 310L1126.25 370L1136.6 387.5H1157.42L1192.91 327.5L1182.56 310H1161.74Z" fill="#9660DB"/>
<path d="M1107.14 387.5L1142.63 327.5L1132.28 310H1111.46L1075.97 370L1086.32 387.5H1107.14Z" fill="#9660DB"/>
<path d="M1176.52 370L1186.87 352.5H1207.7L1218.05 370L1207.7 387.5H1186.87L1176.52 370Z" fill="#9660DB"/>
<path d="M908.567 310L873.077 370L883.428 387.5H904.254L939.744 327.5L929.393 310H908.567Z" fill="#9660DB"/>
<path d="M853.976 387.5L889.466 327.5L879.115 310H858.289L822.799 370L833.15 387.5H853.976Z" fill="#9660DB"/>
<path d="M923.355 370L933.706 352.5H954.532L964.883 370L954.532 387.5H933.706L923.355 370Z" fill="#9660DB"/>
<path d="M781.983 387.5L746.492 327.5L756.844 310H777.669L813.16 370L802.808 387.5H781.983Z" fill="#9660DB"/>
<path d="M727.391 310L762.881 370L752.53 387.5H731.705L696.214 327.5L706.566 310H727.391Z" fill="#9660DB"/>
<path d="M796.77 327.5L807.122 345H827.947L838.299 327.5L827.947 310H807.122L796.77 327.5Z" fill="#9660DB"/>
<path d="M528.814 387.5L493.323 327.5L503.675 310H524.5L559.991 370L549.639 387.5H528.814Z" fill="#9660DB"/>
<path d="M474.222 310L509.713 370L499.361 387.5H478.536L443.045 327.5L453.397 310H474.222Z" fill="#9660DB"/>
<path d="M543.601 327.5L553.953 345H574.778L585.13 327.5L574.778 310H553.953L543.601 327.5Z" fill="#9660DB"/>
<g opacity="0.4">
<path d="M402.229 310L366.739 370L377.09 387.5H397.916L433.406 327.5L423.055 310H402.229Z" fill="#9660DB"/>
<path d="M347.638 387.5L383.128 327.5L372.777 310H351.951L316.461 370L326.812 387.5H347.638Z" fill="#9660DB"/>
<path d="M417.017 370L427.368 352.5H448.194L458.545 370L448.194 387.5H427.368L417.017 370Z" fill="#9660DB"/>
</g>
<path d="M119.608 232.5L155.099 292.5L144.747 310H123.922L88.4312 250L98.7826 232.5H119.608Z" fill="#9660DB"/>
<path d="M174.2 310L138.709 250L149.061 232.5H169.886L205.377 292.5L195.025 310H174.2Z" fill="#9660DB"/>
<path d="M104.82 292.5L94.4691 275H73.6435L63.2922 292.5L73.6435 310H94.4691L104.82 292.5Z" fill="#9660DB"/>
<g opacity="0.5">
<path d="M372.777 232.5L408.267 292.5L397.916 310H377.09L341.6 250L351.951 232.5H372.777Z" fill="#9660DB"/>
<path d="M427.368 310L391.878 250L402.229 232.5H423.055L458.545 292.5L448.194 310H427.368Z" fill="#9660DB"/>
<path d="M357.989 292.5L347.638 275H326.812L316.461 292.5L326.812 310H347.638L357.989 292.5Z" fill="#9660DB"/>
</g>
<path d="M499.361 310L534.852 250L524.5 232.5H503.675L468.184 292.5L478.536 310H499.361Z" fill="#9660DB"/>
<path d="M553.953 232.5L518.463 292.5L528.814 310H549.639L585.13 250L574.778 232.5H553.953Z" fill="#9660DB"/>
<path d="M484.574 250L474.222 267.5H453.397L443.045 250L453.397 232.5H474.222L484.574 250Z" fill="#9660DB"/>
<path d="M1005.7 232.5L1041.19 292.5L1030.84 310H1010.01L974.522 250L984.873 232.5H1005.7Z" fill="#9660DB"/>
<path d="M1060.29 310L1024.8 250L1035.15 232.5H1055.98L1091.47 292.5L1081.12 310H1060.29Z" fill="#9660DB"/>
<path d="M990.911 292.5L980.56 275H959.734L949.383 292.5L959.734 310H980.56L990.911 292.5Z" fill="#9660DB"/>
<g opacity="0.3">
<path d="M1132.28 310L1167.77 250L1157.42 232.5H1136.6L1101.11 292.5L1111.46 310H1132.28Z" fill="#9660DB"/>
<path d="M1186.87 232.5L1151.38 292.5L1161.74 310H1182.56L1218.05 250L1207.7 232.5H1186.87Z" fill="#9660DB"/>
<path d="M1117.5 250L1107.14 267.5H1086.32L1075.97 250L1086.32 232.5H1107.14L1117.5 250Z" fill="#9660DB"/>
</g>
<path d="M1258.87 232.5L1294.36 292.5L1284.01 310H1263.18L1227.69 250L1238.04 232.5H1258.87Z" fill="#9660DB"/>
<path d="M1313.46 310L1277.97 250L1288.32 232.5H1309.15L1344.64 292.5L1334.28 310H1313.46Z" fill="#9660DB"/>
<path d="M1244.08 292.5L1233.73 275H1212.9L1202.55 292.5L1212.9 310H1233.73L1244.08 292.5Z" fill="#9660DB"/>
<g opacity="0.5">
<path d="M56.316 155L91.8064 215L81.455 232.5H60.6294L25.139 172.5L35.4904 155H56.316Z" fill="#9660DB"/>
<path d="M110.907 232.5L75.4171 172.5L85.7685 155H106.594L142.084 215L131.733 232.5H110.907Z" fill="#9660DB"/>
<path d="M41.5283 215L31.1769 197.5H10.3514L0 215L10.3514 232.5H31.1769L41.5283 215Z" fill="#9660DB"/>
</g>
<g opacity="0.4">
<path d="M309.485 155L344.975 215L334.624 232.5H313.798L278.308 172.5L288.659 155H309.485Z" fill="#9660DB"/>
<path d="M364.076 232.5L328.586 172.5L338.937 155H359.763L395.253 215L384.902 232.5H364.076Z" fill="#9660DB"/>
<path d="M294.697 215L284.346 197.5H263.52L253.169 215L263.52 232.5H284.346L294.697 215Z" fill="#9660DB"/>
</g>
<path d="M562.654 232.5L598.144 172.5L587.793 155H566.967L531.477 215L541.828 232.5H562.654Z" fill="#9660DB"/>
<path d="M617.245 155L581.755 215L592.106 232.5H612.932L648.422 172.5L638.071 155H617.245Z" fill="#9660DB"/>
<path d="M547.866 172.5L537.515 190H516.689L506.338 172.5L516.689 155H537.515L547.866 172.5Z" fill="#9660DB"/>
<g opacity="0.8">
<path d="M689.238 155L724.728 215L714.377 232.5H693.551L658.061 172.5L668.412 155H689.238Z" fill="#9660DB"/>
<path d="M743.83 232.5L708.339 172.5L718.691 155H739.516L775.006 215L764.655 232.5H743.83Z" fill="#9660DB"/>
<path d="M674.45 215L664.099 197.5H643.273L632.922 215L643.273 232.5H664.099L674.45 215Z" fill="#9660DB"/>
</g>
<g opacity="0.5">
<path d="M815.822 232.5L851.313 172.5L840.961 155H820.136L784.645 215L794.997 232.5H815.822Z" fill="#9660DB"/>
<path d="M870.414 155L834.924 215L845.275 232.5H866.101L901.591 172.5L891.24 155H870.414Z" fill="#9660DB"/>
<path d="M801.035 172.5L790.683 190H769.858L759.506 172.5L769.858 155H790.683L801.035 172.5Z" fill="#9660DB"/>
</g>
<g opacity="0.5">
<path d="M1068.99 155L1104.48 215L1094.13 232.5H1073.3L1037.81 172.5L1048.17 155H1068.99Z" fill="#9660DB"/>
<path d="M1123.58 232.5L1088.09 172.5L1098.44 155H1119.27L1154.76 215L1144.41 232.5H1123.58Z" fill="#9660DB"/>
<path d="M1054.2 215L1043.85 197.5H1023.03L1012.68 215L1023.03 232.5H1043.85L1054.2 215Z" fill="#9660DB"/>
</g>
<g opacity="0.6">
<path d="M1351.61 77.5L1316.12 137.5L1326.47 155H1347.3L1382.79 95L1372.44 77.5H1351.61Z" fill="#9660DB"/>
<path d="M1297.02 155L1332.51 95L1322.16 77.5H1301.33L1265.84 137.5L1276.2 155H1297.02Z" fill="#9660DB"/>
<path d="M1366.4 137.5L1376.75 120H1397.58L1407.93 137.5L1397.58 155H1376.75L1366.4 137.5Z" fill="#9660DB"/>
</g>
<path d="M1098.44 155L1062.95 95L1073.3 77.5H1094.13L1129.62 137.5L1119.27 155H1098.44Z" fill="#9660DB"/>
<path d="M1043.85 77.5L1079.34 137.5L1068.99 155H1048.17L1012.68 95L1023.03 77.5H1043.85Z" fill="#9660DB"/>
<path d="M1113.23 95L1123.58 112.5H1144.41L1154.76 95L1144.41 77.5H1123.58L1113.23 95Z" fill="#9660DB"/>
<g opacity="0.4">
<path d="M971.859 77.5L936.369 137.5L946.72 155H967.546L1003.04 95L992.685 77.5H971.859Z" fill="#9660DB"/>
<path d="M917.268 155L952.758 95L942.407 77.5H921.581L886.091 137.5L896.442 155H917.268Z" fill="#9660DB"/>
<path d="M986.647 137.5L996.998 120H1017.82L1028.18 137.5L1017.82 155H996.998L986.647 137.5Z" fill="#9660DB"/>
</g>
<path d="M845.275 155L809.784 95L820.136 77.5H840.961L876.452 137.5L866.1 155H845.275Z" fill="#9660DB"/>
<path d="M790.683 77.5L826.174 137.5L815.822 155H794.997L759.506 95L769.858 77.5H790.683Z" fill="#9660DB"/>
<path d="M860.063 95L870.414 112.5H891.239L901.591 95L891.239 77.5H870.414L860.063 95Z" fill="#9660DB"/>
<g opacity="0.5">
<path d="M592.106 155L556.616 95L566.967 77.5H587.793L623.283 137.5L612.932 155H592.106Z" fill="#9660DB"/>
<path d="M537.515 77.5L573.005 137.5L562.654 155H541.828L506.338 95L516.689 77.5H537.515Z" fill="#9660DB"/>
<path d="M606.894 95L617.245 112.5H638.071L648.422 95L638.071 77.5H617.245L606.894 95Z" fill="#9660DB"/>
</g>
<path d="M465.522 77.5L430.031 137.5L440.383 155H461.208L496.699 95L486.347 77.5H465.522Z" fill="#9660DB"/>
<path d="M410.93 155L446.42 95L436.069 77.5H415.244L379.753 137.5L390.105 155H410.93Z" fill="#9660DB"/>
<path d="M480.309 137.5L490.661 120H511.486L521.838 137.5L511.486 155H490.661L480.309 137.5Z" fill="#9660DB"/>
<g opacity="0.2">
<path d="M212.353 155L176.862 95L187.214 77.5H208.039L243.53 137.5L233.178 155H212.353Z" fill="#9660DB"/>
<path d="M157.761 77.5L193.252 137.5L182.9 155H162.075L126.584 95L136.936 77.5H157.761Z" fill="#9660DB"/>
<path d="M227.14 95L237.492 112.5H258.317L268.669 95L258.317 77.5H237.492L227.14 95Z" fill="#9660DB"/>
</g>
<path d="M246.193 0L281.683 60L271.332 77.5H250.506L215.016 17.5L225.367 0H246.193Z" fill="#9660DB"/>
<path d="M300.784 77.5L265.294 17.5L275.645 0H296.471L331.961 60L321.61 77.5H300.784Z" fill="#9660DB"/>
<path d="M231.405 60L221.054 42.5H200.228L189.877 60L200.228 77.5H221.054L231.405 60Z" fill="#9660DB"/>
<g opacity="0.5">
<path d="M1132.28 77.5L1167.77 17.5L1157.42 0H1136.6L1101.11 60L1111.46 77.5H1132.28Z" fill="#9660DB"/>
<path d="M1186.87 0L1151.38 60L1161.74 77.5H1182.56L1218.05 17.5L1207.7 0H1186.87Z" fill="#9660DB"/>
<path d="M1117.5 17.5L1107.14 35H1086.32L1075.97 17.5L1086.32 0H1107.14L1117.5 17.5Z" fill="#9660DB"/>
</g>
</g>
</svg>
