<svg width="1394" height="198" viewBox="0 0 1394 198" fill="none" xmlns="http://www.w3.org/2000/svg">
<path fill-rule="evenodd" clip-rule="evenodd" d="M162 16.3731L152.315 0H81.1843L45.2503 60.75L54.5665 76.5H35.934L0 137.25L35.934 198H107.065L116.75 181.627L126.435 198H197.565L207.25 181.627L216.935 198H288.066L324 137.25L242.816 0H171.685L162 16.3731ZM143.257 15.75H90.243L63.6252 60.75L82.2577 92.25H44.9928L18.375 137.25L44.9928 182.25H98.0072L116.75 150.563L135.493 182.25H188.508L207.251 150.563L225.994 182.25H279.008L305.626 137.25L233.758 15.75H180.744L162 47.4369L143.257 15.75Z" fill="#9660DB"/>
<path d="M135.493 29.25L199.376 137.25L180.743 168.75H143.257L79.3748 60.75L98.0072 29.25H135.493Z" fill="#9660DB"/>
<path d="M233.758 168.75L169.875 60.75L188.508 29.25H225.994L289.876 137.25L271.244 168.75H233.758Z" fill="#9660DB"/>
<path d="M108.875 137.25L90.243 105.75H52.757L34.1245 137.25L52.757 168.75H90.243L108.875 137.25Z" fill="#9660DB"/>
<path d="M549.226 170.22H510.262L499.473 90.0477L462.308 170.618H450.918L413.953 90.2467L403.163 170.22H364L385.18 30.9629H423.744L456.713 106.759L489.882 30.9629H528.246L549.226 170.22Z" fill="white"/>
<path d="M615.281 173.801C580.114 173.801 554.938 149.729 554.938 116.507C554.938 83.2838 580.114 59.4111 615.281 59.4111C650.448 59.4111 675.824 83.2838 675.824 116.507C675.824 149.729 650.448 173.801 615.281 173.801ZM615.281 140.578C628.868 140.578 638.659 130.83 638.659 116.706C638.659 102.581 628.868 92.634 615.281 92.634C601.893 92.634 592.103 102.382 592.103 116.706C592.103 130.83 601.893 140.578 615.281 140.578Z" fill="white"/>
<path d="M766.17 24H802.936V170.22H775.561L771.965 162.263C763.173 169.623 751.984 174 739.395 174C706.426 174 682.849 149.928 682.849 116.507C682.849 83.2838 706.426 59.4111 739.395 59.4111C749.386 59.4111 758.577 61.9973 766.17 66.7719V24ZM744.391 141.175C758.378 141.175 768.568 130.631 768.568 116.706C768.568 102.581 758.378 92.0371 744.391 92.0371C730.604 92.0371 720.213 102.581 720.213 116.706C720.213 130.631 730.604 141.175 744.391 141.175Z" fill="white"/>
<path d="M873.574 173.801C839.406 173.801 817.227 155.698 817.227 125.26H856.989C856.989 135.207 864.782 140.18 873.574 140.18C881.566 140.18 889.359 135.804 889.359 128.244C889.359 119.491 878.369 116.905 864.982 113.721C844.801 108.748 819.025 102.581 819.025 70.9496C819.025 43.496 839.206 27.7798 872.175 27.7798C905.744 27.7798 925.125 44.8886 925.125 73.3369H886.362C886.362 64.3846 879.768 60.2069 871.776 60.2069C864.982 60.2069 858.388 63.191 858.388 69.756C858.388 77.7135 868.978 80.2997 881.966 83.6817C902.746 88.8541 929.521 95.817 929.521 127.448C929.521 157.886 906.143 173.801 873.574 173.801Z" fill="white"/>
<path d="M1000.29 137.992H1014.47V170.22H988.898C965.121 170.22 950.534 155.698 950.534 131.825V91.4403H930.753V82.687L979.107 31.5597H986.9V62.7931H1013.87V91.4403H987.699V125.658C987.699 133.218 992.495 137.992 1000.29 137.992Z" fill="white"/>
<path d="M1114.04 62.7931H1141.81V170.22H1113.04L1109.84 162.66C1101.05 169.822 1089.86 173.801 1077.27 173.801C1044.3 173.801 1020.73 149.928 1020.73 116.507C1020.73 83.2838 1044.3 59.6101 1077.27 59.6101C1090.06 59.6101 1101.45 63.7878 1110.24 71.1485L1114.04 62.7931ZM1082.27 141.175C1096.26 141.175 1106.45 130.631 1106.45 116.507C1106.45 102.581 1096.26 92.2361 1082.27 92.2361C1068.28 92.2361 1058.09 102.581 1058.09 116.507C1058.09 130.631 1068.28 141.175 1082.27 141.175Z" fill="white"/>
<path d="M1214.62 173.801C1180.05 173.801 1155.08 149.729 1155.08 116.507C1155.08 83.2838 1179.85 59.6101 1214.82 59.6101C1245.19 59.6101 1267.77 78.5093 1271.97 107.157H1235.6C1232.6 98.4032 1224.41 92.634 1214.62 92.634C1201.63 92.634 1192.24 102.581 1192.24 116.507C1192.24 130.631 1201.63 140.777 1214.62 140.777C1224.61 140.777 1232.8 134.61 1235.8 125.061H1272.37C1268.17 154.106 1244.99 173.801 1214.62 173.801Z" fill="white"/>
<path d="M1394 170.22H1350.04L1323.07 124.862V170.22H1285.9V24H1323.07V104.968L1348.84 62.7931H1390.6L1356.83 114.119L1394 170.22Z" fill="white"/>
</svg>
